<svg width="24" height="24" viewBox="0 0 24 24" fill="none" xmlns="http://www.w3.org/2000/svg">
<path d="M14.5882 21.6592C15.1866 21.4997 15.7204 21.1577 16.1155 20.6808C16.5106 20.2038 16.7472 19.6157 16.7926 18.998L11.3486 20.4568C11.6967 20.969 12.1957 21.36 12.7763 21.5755C13.3569 21.791 13.9902 21.8203 14.5882 21.6592ZM19.4308 12.6861L18.2439 8.25641C17.4113 5.14902 14.5993 3.09688 11.5292 3.07576C11.0552 2.43874 10.229 2.12177 9.41184 2.34073C8.59466 2.55969 8.03765 3.24729 7.94564 4.03598C5.2977 5.59028 3.88829 8.77249 4.72091 11.8799L5.90785 16.3096L4.70082 18.4002C4.56819 18.6299 4.53221 18.9028 4.60079 19.159L4.85961 20.1249C4.92825 20.3811 5.09585 20.5995 5.32554 20.7321C5.55522 20.8647 5.82818 20.9007 6.08436 20.832L21.5392 16.6909C21.7953 16.6223 22.0138 16.4547 22.1464 16.225C22.279 15.9953 22.3149 15.7224 22.2463 15.4662L21.9875 14.5002C21.9188 14.2441 21.7511 14.0257 21.5215 13.8932L19.4308 12.6861Z" fill="#515152"/>
</svg>
