<svg width="24" height="24" viewBox="0 0 24 24" fill="none" xmlns="http://www.w3.org/2000/svg">
<path d="M15.9706 18.183C16.8061 17.9591 17.5126 18.83 17.1219 19.6014C16.868 20.1032 16.5111 20.5459 16.0745 20.9005C15.6379 21.2551 15.1315 21.5136 14.5882 21.6592C14.0449 21.8048 13.477 21.8341 12.9216 21.7453C12.3662 21.6565 11.8358 21.4516 11.365 21.1439C10.6724 20.6918 10.8037 19.6596 11.5475 19.3754L11.6522 19.3412L15.9706 18.183ZM9.41181 2.34073C10.7235 1.98925 12.0661 2.56436 12.743 3.66467L12.8317 3.81794L12.8505 3.8574C14.0764 4.17257 15.2102 4.77377 16.1588 5.61173C17.1075 6.44968 17.8441 7.50052 18.3082 8.67812L18.4095 8.94809L18.5027 9.22233L19.2613 12.0535L19.3167 12.1794C19.6397 12.8557 20.2041 13.3866 20.8988 13.6676L21.0904 13.7374L21.2725 13.7911C22.2293 14.0389 22.2705 15.352 21.3908 15.6892L21.2803 15.725L5.82551 19.8661C4.83254 20.1322 4.13274 18.9076 4.86532 18.1874C5.17755 17.8805 5.41884 17.509 5.57222 17.0989C5.72561 16.6889 5.78739 16.2502 5.75322 15.8137L5.73649 15.6702L4.96876 12.8011C4.68961 11.5237 4.72781 10.1974 5.08003 8.93815C5.43225 7.67894 6.08775 6.52525 6.98915 5.57807L7.19091 5.37286L7.18944 5.32874C7.17088 4.71444 7.34143 4.10926 7.67803 3.59505C8.01462 3.08085 8.50103 2.68242 9.07145 2.45367L9.24285 2.39015L9.41181 2.34073Z" fill="#545FE8"/>
</svg>
