<svg width="24" height="24" viewBox="0 0 24 24" fill="none" xmlns="http://www.w3.org/2000/svg">
<path d="M14.9794 20.4C16.1325 20.4 16.7417 21.6288 15.9725 22.4016C15.4724 22.9045 14.8601 23.3067 14.1756 23.5822C13.4911 23.8576 12.7498 24 12 24C11.2502 24 10.5089 23.8576 9.82441 23.5822C9.13991 23.3067 8.52762 22.9045 8.02752 22.4016C7.29168 21.6624 7.8169 20.5068 8.87268 20.4084L9.01931 20.4012L14.9794 20.4ZM12 0C13.8103 0 15.3407 1.0836 15.8326 2.5692L15.8939 2.7744L15.9045 2.826C17.3743 3.57206 18.6267 4.62104 19.5591 5.88696C20.4916 7.15288 21.0774 8.59969 21.2687 10.1088L21.3061 10.4532L21.3314 10.8V14.3172L21.3594 14.4804C21.5419 15.3646 22.0855 16.1553 22.8831 16.6968L23.1057 16.8372L23.3217 16.956C24.4681 17.5404 24.0682 19.0752 22.8191 19.1928L22.6645 19.2H1.33559C-0.0347921 19.2 -0.513359 17.5632 0.678392 16.956C1.18633 16.6972 1.62519 16.3416 1.96418 15.9139C2.30316 15.4862 2.53406 14.9969 2.64065 14.4804L2.66864 14.3088L2.66997 10.7448C2.75125 9.17746 3.25806 7.65193 4.14605 6.30176C5.03403 4.95159 6.27611 3.81793 7.76358 3L8.09417 2.8248L8.1075 2.7732C8.29555 2.05539 8.72395 1.4069 9.33478 0.915415C9.9456 0.423933 10.7094 0.113185 11.5228 0.0251999L11.7654 0.00479994L12 0Z" fill="#6B6B6B"/>
</svg>
