<svg width="24" height="24" viewBox="0 0 24 24" fill="none" xmlns="http://www.w3.org/2000/svg">
<path d="M8.3844 2.47919C8.90949 2.32087 9.47298 2.34717 9.98104 2.55371C10.4891 2.76026 10.9111 3.13459 11.1768 3.61439L11.2656 3.79319L12.06 5.55839C12.3006 6.09426 12.3786 6.68899 12.2843 7.26879C12.19 7.8486 11.9276 8.38796 11.5296 8.81999L11.37 8.97839L10.1184 10.146C9.8928 10.3596 10.062 11.1864 10.878 12.6C11.6124 13.872 12.21 14.466 12.504 14.4984H12.5556L12.6192 14.4864L15.0792 13.734C15.4098 13.6326 15.7626 13.6286 16.0955 13.7224C16.4283 13.8163 16.7271 14.004 16.956 14.2632L17.0652 14.4012L18.6936 16.6572C19.0127 17.0994 19.1718 17.6371 19.1445 18.1817C19.1172 18.7264 18.9053 19.2455 18.5436 19.6536L18.3972 19.8048L17.7468 20.4216C17.1628 20.9747 16.4322 21.3485 15.6419 21.4984C14.8516 21.6484 14.0349 21.5683 13.2888 21.2676C10.9668 20.3316 8.8572 18.1932 6.9408 14.874C5.02079 11.5464 4.2228 8.64599 4.5792 6.16199C4.68704 5.41111 4.99624 4.70345 5.47396 4.11418C5.95167 3.52491 6.58006 3.07602 7.2924 2.81519L7.524 2.73839L8.3844 2.47919Z" fill="#8D8D8D"/>
</svg>
