<svg width="24" height="24" viewBox="0 0 24 24" fill="none" xmlns="http://www.w3.org/2000/svg">
<path d="M12 1C5.92387 1 1 5.92525 1 12C1 18.0748 5.92387 23 12 23C18.0761 23 23 18.0748 23 12C23 5.92525 18.0761 1 12 1ZM17.0971 15.1529C17.3549 15.4107 17.4998 15.7604 17.4998 16.125C17.4998 16.4896 17.3549 16.8393 17.0971 17.0971C16.8393 17.3549 16.4896 17.4998 16.125 17.4998C15.7604 17.4998 15.4107 17.3549 15.1529 17.0971L12 13.9442L8.84712 17.0971C8.71973 17.2253 8.56826 17.3269 8.40142 17.3963C8.23459 17.4657 8.05569 17.5014 7.875 17.5014C7.69431 17.5014 7.51541 17.4657 7.34858 17.3963C7.18174 17.3269 7.03027 17.2253 6.90288 17.0971C6.6451 16.8393 6.50029 16.4896 6.50029 16.125C6.50029 15.7604 6.6451 15.4107 6.90288 15.1529L10.0558 12L6.90288 8.84712C6.64505 8.5893 6.50021 8.23962 6.50021 7.875C6.50021 7.51038 6.64505 7.1607 6.90288 6.90288C7.1607 6.64505 7.51038 6.50021 7.875 6.50021C8.23962 6.50021 8.5893 6.64505 8.84712 6.90288L12 10.0558L15.1529 6.90288C15.4107 6.64505 15.7604 6.50021 16.125 6.50021C16.4896 6.50021 16.8393 6.64505 17.0971 6.90288C17.3549 7.1607 17.4998 7.51038 17.4998 7.875C17.4998 8.23962 17.3549 8.5893 17.0971 8.84712L13.9442 12L17.0971 15.1529Z" fill="#A8A8A8"/>
</svg>
