<svg width="24" height="24" viewBox="0 0 24 24" fill="none" xmlns="http://www.w3.org/2000/svg">
<g clip-path="url(#clip0_256_9799)">
<path d="M9.58715 10.2L6.50305 4.5075C6.29948 4.1475 6.34508 3.8064 6.63985 3.4842C6.93462 3.162 7.34706 3.0006 7.87716 3L8.54894 3C8.79323 3 9.02733 3.0414 9.25126 3.1242C9.47519 3.207 9.6584 3.3231 9.8009 3.4725L16.1829 10.2L21.5571 10.2C22.2289 10.2 22.8038 10.3764 23.2818 10.7292C23.7598 11.082 23.9992 11.5056 24 12C24.0008 12.4944 23.7614 12.9183 23.2818 13.2717C22.8022 13.6251 22.2273 13.8012 21.5571 13.8L16.1829 13.8L9.8009 20.5275C9.6584 20.6775 9.47519 20.7939 9.25126 20.8767C9.02733 20.9595 8.79323 21.0006 8.54894 21L7.87716 21C7.34787 21 6.93544 20.8389 6.63985 20.5167C6.34426 20.1945 6.29866 19.8531 6.50305 19.4925L9.58715 13.8L5.19002 13.8L2.99144 16.1175C2.8693 16.2375 2.72151 16.3314 2.54807 16.3992C2.37463 16.467 2.18653 16.5006 1.98377 16.5L1.25091 16.5C0.843769 16.5 0.512763 16.3761 0.257891 16.1283C0.00302022 15.8805 -0.0629377 15.6069 0.0600194 15.3075L1.40359 12L0.0600194 8.6925C-0.0621234 8.3925 0.0038345 8.1186 0.257891 7.8708C0.511948 7.623 0.842955 7.4994 1.25091 7.5L1.98377 7.5C2.18734 7.5 2.37544 7.5339 2.54807 7.6017C2.7207 7.6695 2.86849 7.7631 2.99144 7.8825L5.19002 10.2L9.58715 10.2Z" fill="#C2C7FC"/>
</g>
<defs>
<clipPath id="clip0_256_9799">
<rect width="24" height="24" fill="white" transform="translate(24 1.04907e-06) rotate(90)"/>
</clipPath>
</defs>
</svg>
