<svg width="24" height="24" viewBox="0 0 24 24" fill="none" xmlns="http://www.w3.org/2000/svg">
<g clip-path="url(#clip0_256_9913)">
<path d="M9.31299 12.0007L3.0551 9.31371C2.6544 9.14872 2.41281 8.85433 2.33031 8.43053C2.24782 8.00674 2.35978 7.64117 2.66619 7.33381L3.0551 6.9449C3.19652 6.80348 3.36458 6.70048 3.55927 6.6359C3.75396 6.57131 3.95124 6.55647 4.15111 6.59135L13.1314 8.18234L16.2426 5.07107C16.6315 4.68216 17.103 4.48794 17.6569 4.48841C18.2108 4.48889 18.6822 4.6831 19.0711 5.07107C19.46 5.45904 19.6544 5.93068 19.6544 6.48599C19.6544 7.04131 19.46 7.51247 19.0711 7.8995L15.9598 11.0108L17.5508 19.991C17.5861 20.1914 17.5715 20.3889 17.5069 20.5836C17.4424 20.7783 17.3391 20.9461 17.1972 21.087L16.8083 21.4759C16.5019 21.7824 16.1366 21.8946 15.7123 21.8125C15.288 21.7305 14.9934 21.4887 14.8284 21.087L12.1414 14.8291L9.59584 17.3747L10.1438 20.4683C10.1674 20.6333 10.1556 20.7926 10.1085 20.9463C10.0613 21.1 9.97885 21.2353 9.861 21.3522L9.43674 21.7765C9.20103 22.0122 8.91206 22.1065 8.56982 22.0593C8.22758 22.0122 7.97444 21.8354 7.81039 21.529L5.98959 18.1525L2.61316 16.3317C2.30674 16.1668 2.12973 15.9134 2.08212 15.5716C2.03451 15.2298 2.12902 14.9411 2.36567 14.7054L2.78993 14.2811C2.90778 14.1633 3.04331 14.081 3.19652 14.0344C3.34973 13.9877 3.50882 13.9757 3.67382 13.9983L6.76741 14.5463L9.31299 12.0007Z" fill="#7681FC"/>
</g>
<defs>
<clipPath id="clip0_256_9913">
<rect width="24" height="24" fill="white" transform="translate(24 1.04907e-06) rotate(90)"/>
</clipPath>
</defs>
</svg>
