<svg width="24" height="24" viewBox="0 0 24 24" fill="none" xmlns="http://www.w3.org/2000/svg">
<path fill-rule="evenodd" clip-rule="evenodd" d="M4.65989 5.67632C5.61525 4.71163 6.88059 4.12326 8.22775 4.0173C9.57491 3.91134 10.9152 4.29476 12.0071 5.09842C13.1607 4.25583 14.5861 3.88229 16 4.05205C17.4139 4.22181 18.7128 4.92244 19.6384 6.01467C20.5641 7.10691 21.0488 8.51078 20.9961 9.94724C20.9435 11.3837 20.3574 12.7476 19.3543 13.7678L14.0106 19.1624C13.4792 19.6987 12.7585 20 12.0071 20C11.2557 20 10.535 19.6987 10.0036 19.1624L4.65989 13.7687C3.59708 12.6957 3 11.2404 3 9.72299C3 8.20557 3.59708 6.74933 4.65989 5.67632Z" fill="#7681FC"/>
</svg>
