<svg width="24" height="24" viewBox="0 0 24 24" fill="none" xmlns="http://www.w3.org/2000/svg">
<path d="M0 12.0001C0 5.37266 5.3726 6.10352e-05 12 6.10352e-05C18.6274 6.10352e-05 24 5.37266 24 12.0001C24 18.6275 18.6274 24.0001 12 24.0001C5.3726 24.0001 0 18.6275 0 12.0001Z" fill="#FFE812"/>
<path d="M12 5.50006C7.5817 5.50006 4 8.32416 4 11.8078C4 14.06 5.4974 16.0362 7.74985 17.1522C7.6273 17.5748 6.9624 19.8709 6.9359 20.0513C6.9359 20.0513 6.92 20.1868 7.00775 20.2385C7.09555 20.2902 7.19875 20.2501 7.19875 20.2501C7.45045 20.2149 10.1175 18.3415 10.5791 18.0162C11.0403 18.0815 11.5151 18.1155 12 18.1155C16.4183 18.1155 20 15.2915 20 11.8078C20 8.32416 16.4183 5.50006 12 5.50006Z" fill="#381F1F"/>
<path d="M8.75873 9.92316C9.00843 9.92321 9.21185 10.1262 9.21185 10.3753C9.21172 10.6243 9.0083 10.8274 8.75873 10.8275H8.03802V13.5687C8.03802 13.8117 7.83156 14.01 7.57709 14.0101C7.32254 14.0101 7.11517 13.8118 7.11517 13.5687V10.8275H6.39545C6.14578 10.8275 5.94246 10.6243 5.94232 10.3753C5.94232 10.1262 6.14575 9.92316 6.39545 9.92316H8.75873ZM10.3076 9.92316C10.6089 9.93007 10.8448 10.1578 10.9228 10.3792L12.0263 13.2835C12.1668 13.7198 12.0442 13.8813 11.9169 13.9398C11.8249 13.9817 11.7251 14.0033 11.624 14.0032C11.4317 14.0032 11.2847 13.9256 11.2402 13.8001L11.0117 13.2015H9.60443L9.37494 13.8001C9.33066 13.9255 9.18356 14.0032 8.99115 14.0032C8.89001 14.0033 8.79013 13.9818 8.69818 13.9398C8.57093 13.8811 8.44866 13.7198 8.58881 13.2845L9.69232 10.3792C9.77012 10.1582 10.0069 9.93001 10.3076 9.92316ZM15.3329 9.92316C15.5875 9.92316 15.7949 10.1305 15.7949 10.3851V11.3763L17.0829 10.0892C17.1491 10.023 17.24 9.98663 17.3388 9.98663C17.4539 9.98669 17.5695 10.0359 17.6562 10.1224C17.737 10.2032 17.7853 10.3074 17.7919 10.4153C17.7986 10.5241 17.7626 10.6243 17.6904 10.6966L16.6386 11.7474L17.7744 13.2532C17.811 13.3015 17.8383 13.3567 17.8535 13.4153C17.8686 13.4739 17.8718 13.5351 17.8632 13.595C17.855 13.655 17.8343 13.7127 17.8036 13.765C17.7729 13.8172 17.732 13.8624 17.6835 13.8987C17.6037 13.9594 17.5065 13.9927 17.4062 13.9925C17.3347 13.9928 17.2641 13.9765 17.2001 13.9446C17.1362 13.9128 17.0809 13.8661 17.038 13.8089L15.955 12.3743L15.7949 12.5345V13.5423C15.7946 13.6646 15.7465 13.782 15.6601 13.8685C15.5735 13.955 15.4553 14.003 15.3329 14.0032C15.0786 14.003 14.8721 13.7966 14.872 13.5423V10.3851C14.872 10.1307 15.0786 9.92339 15.3329 9.92316ZM12.7978 9.92316C13.0575 9.92316 13.2695 10.1305 13.2695 10.3851V13.096H14.2499C14.4937 13.096 14.6921 13.2858 14.6923 13.5189C14.6923 13.7521 14.4939 13.9427 14.2499 13.9427H12.7695C12.5255 13.9427 12.3271 13.7521 12.3271 13.5189V10.3851C12.3271 10.1306 12.5381 9.92331 12.7978 9.92316ZM9.84662 12.3841H10.7685L10.3076 11.0745L9.84662 12.3841Z" fill="#FFE812"/>
</svg>
