<svg width="24" height="24" viewBox="0 0 24 24" fill="none" xmlns="http://www.w3.org/2000/svg">
<path d="M11.5 13.8571C16.725 13.8571 21 17.25 21 19.9643C21 20.5042 20.7855 21.022 20.4038 21.4038C20.022 21.7855 19.5042 22 18.9643 22H4.03571C3.49581 22 2.97802 21.7855 2.59625 21.4038C2.21448 21.022 2 20.5042 2 19.9643C2 17.25 6.275 13.8571 11.5 13.8571ZM11.5 3C12.7598 3 13.968 3.50044 14.8588 4.39124C15.7496 5.28204 16.25 6.49022 16.25 7.75C16.25 9.00978 15.7496 10.218 14.8588 11.1088C13.968 11.9996 12.7598 12.5 11.5 12.5C10.2402 12.5 9.03204 11.9996 8.14124 11.1088C7.25045 10.218 6.75 9.00978 6.75 7.75C6.75 6.49022 7.25045 5.28204 8.14124 4.39124C9.03204 3.50044 10.2402 3 11.5 3Z" fill="#7681FC"/>
</svg>
