<svg width="24" height="24" viewBox="0 0 24 24" fill="none" xmlns="http://www.w3.org/2000/svg">
<path d="M11.5 13.1786C16.725 13.1786 21 16.5714 21 19.2857C21 20.0056 20.714 20.696 20.205 21.205C19.696 21.714 19.0056 22 18.2857 22H4.71429C3.99441 22 3.30402 21.714 2.795 21.205C2.28597 20.696 2 20.0056 2 19.2857C2 16.5714 6.275 13.1786 11.5 13.1786ZM11.5 15.2143C9.315 15.2143 7.34171 15.9281 5.94657 16.889C4.44014 17.9299 4.03571 18.9234 4.03571 19.2857C4.03571 19.4657 4.10721 19.6383 4.23446 19.7655C4.36172 19.8928 4.53432 19.9643 4.71429 19.9643H18.2857C18.4657 19.9643 18.6383 19.8928 18.7655 19.7655C18.8928 19.6383 18.9643 19.4657 18.9643 19.2857C18.9643 18.9234 18.5612 17.9286 17.0534 16.889C15.6583 15.9281 13.6836 15.2143 11.5 15.2143ZM11.5 3C12.7598 3 13.968 3.50044 14.8588 4.39124C15.7496 5.28204 16.25 6.49022 16.25 7.75C16.25 9.00978 15.7496 10.218 14.8588 11.1088C13.968 11.9996 12.7598 12.5 11.5 12.5C10.2402 12.5 9.03204 11.9996 8.14124 11.1088C7.25045 10.218 6.75 9.00978 6.75 7.75C6.75 6.49022 7.25045 5.28204 8.14124 4.39124C9.03204 3.50044 10.2402 3 11.5 3ZM11.5 5.03571C10.7801 5.03571 10.0897 5.32168 9.58071 5.83071C9.07168 6.33974 8.78571 7.03013 8.78571 7.75C8.78571 8.46987 9.07168 9.16026 9.58071 9.66929C10.0897 10.1783 10.7801 10.4643 11.5 10.4643C12.2199 10.4643 12.9103 10.1783 13.4193 9.66929C13.9283 9.16026 14.2143 8.46987 14.2143 7.75C14.2143 7.03013 13.9283 6.33974 13.4193 5.83071C12.9103 5.32168 12.2199 5.03571 11.5 5.03571Z" fill="#A8A8A8"/>
</svg>
