<svg width="24" height="24" viewBox="0 0 24 24" fill="none" xmlns="http://www.w3.org/2000/svg">
<path d="M4.8 11.7L2.3 9.2C2.1 9 2 8.76667 2 8.5C2 8.23333 2.1 8 2.3 7.8L4.8 5.3C5 5.1 5.23333 5 5.5 5C5.76667 5 6 5.1 6.2 5.3L8.7 7.8C8.9 8 9 8.23333 9 8.5C9 8.76667 8.9 9 8.7 9.2L6.2 11.7C6 11.9 5.76667 12 5.5 12C5.23333 12 5 11.9 4.8 11.7ZM10 22C9.71667 22 9.47933 21.904 9.288 21.712C9.09667 21.52 9.00067 21.2827 9 21V17C8.16667 16.9333 7.34167 16.8417 6.525 16.725C5.70833 16.6083 4.89167 16.4583 4.075 16.275C3.79167 16.2083 3.56267 16.05 3.388 15.8C3.21333 15.55 3.16733 15.2833 3.25 15C3.33267 14.7167 3.50367 14.5083 3.763 14.375C4.02233 14.2417 4.293 14.2083 4.575 14.275C5.79167 14.5583 7.021 14.75 8.263 14.85C9.505 14.95 10.7507 15 12 15C13.2493 15 14.4953 14.95 15.738 14.85C16.9807 14.75 18.2097 14.5583 19.425 14.275C19.7083 14.2083 19.9793 14.2417 20.238 14.375C20.4967 14.5083 20.6673 14.7167 20.75 15C20.8327 15.2833 20.787 15.55 20.613 15.8C20.439 16.05 20.2097 16.2083 19.925 16.275C19.1083 16.4583 18.2917 16.6083 17.475 16.725C16.6583 16.8417 15.8333 16.9333 15 17V21C15 21.2833 14.9043 21.521 14.713 21.713C14.5217 21.905 14.284 22.0007 14 22H10ZM12 7C11.1667 7 10.4583 6.70833 9.875 6.125C9.29167 5.54167 9 4.83333 9 4C9 3.16667 9.29167 2.45833 9.875 1.875C10.4583 1.29167 11.1667 1 12 1C12.8333 1 13.5417 1.29167 14.125 1.875C14.7083 2.45833 15 3.16667 15 4C15 4.83333 14.7083 5.54167 14.125 6.125C13.5417 6.70833 12.8333 7 12 7ZM12 14C11.45 14 10.9793 13.8043 10.588 13.413C10.1967 13.0217 10.0007 12.5507 10 12C9.99933 11.4493 10.1953 10.9787 10.588 10.588C10.9807 10.1973 11.4513 10.0013 12 10C12.5487 9.99867 13.0197 10.1947 13.413 10.588C13.8063 10.9813 14.002 11.452 14 12C13.998 12.548 13.8023 13.019 13.413 13.413C13.0237 13.807 12.5527 14.0027 12 14ZM16.775 11.5L15.625 9.5C15.5417 9.35 15.5 9.18333 15.5 9C15.5 8.81667 15.5417 8.65 15.625 8.5L16.775 6.5C16.8583 6.33333 16.975 6.20833 17.125 6.125C17.275 6.04167 17.4417 6 17.625 6H19.875C20.0583 6 20.225 6.04167 20.375 6.125C20.525 6.20833 20.6417 6.33333 20.725 6.5L21.875 8.5C21.9583 8.65 22 8.81667 22 9C22 9.18333 21.9583 9.35 21.875 9.5L20.725 11.5C20.6417 11.6667 20.525 11.7917 20.375 11.875C20.225 11.9583 20.0583 12 19.875 12H17.625C17.4417 12 17.275 11.9583 17.125 11.875C16.975 11.7917 16.8583 11.6667 16.775 11.5Z" fill="#6B6B6B"/>
</svg>
