<svg width="24" height="24" viewBox="0 0 24 24" fill="none" xmlns="http://www.w3.org/2000/svg">
<g clip-path="url(#clip0_256_9936)">
<path fill-rule="evenodd" clip-rule="evenodd" d="M11.7874 0.344559C11.9471 0.39985 12.0943 0.486074 12.2206 0.5983C12.347 0.710526 12.4499 0.846553 12.5236 0.998603C12.5974 1.15065 12.6404 1.31574 12.6502 1.48443C12.6601 1.65312 12.6366 1.8221 12.5811 1.9817C12.0875 3.40382 12.1531 4.96042 12.7646 6.33599C12.9026 6.64788 12.911 7.00182 12.788 7.31993C12.6651 7.63805 12.4208 7.89429 12.1089 8.03227C11.797 8.17026 11.443 8.1787 11.1249 8.05573C10.8068 7.93276 10.5506 7.68845 10.4126 7.37656C9.53765 5.40613 9.4439 3.17692 10.1503 1.13999C10.2052 0.980005 10.2912 0.832438 10.4033 0.705742C10.5154 0.579046 10.6513 0.475711 10.8034 0.40166C10.9555 0.327608 11.1207 0.284295 11.2896 0.274202C11.4584 0.26411 11.6276 0.287436 11.7874 0.342845M7.75371 4.94227C7.80054 4.60446 7.71126 4.26189 7.50551 3.9899C7.29975 3.71792 6.99438 3.53882 6.65657 3.49199C6.31876 3.44516 5.97618 3.53444 5.7042 3.7402C5.43222 3.94595 5.25311 4.25132 5.20628 4.58913C5.04218 5.76973 5.31532 6.96961 5.97428 7.96285C6.06771 8.10355 6.18794 8.22447 6.32809 8.31871C6.46825 8.41295 6.6256 8.47866 6.79115 8.51209C6.95671 8.54552 7.12723 8.54601 7.29297 8.51354C7.45871 8.48107 7.61644 8.41627 7.75714 8.32285C7.89784 8.22942 8.01877 8.10919 8.11301 7.96904C8.20725 7.82888 8.27296 7.67153 8.30638 7.50598C8.33981 7.34042 8.34031 7.1699 8.30784 7.00416C8.27537 6.83842 8.21057 6.68069 8.11714 6.53999C7.80521 6.06956 7.67596 5.50134 7.75371 4.94227ZM17.8423 7.35427C17.3738 7.23424 16.8825 7.23414 16.414 7.35399C15.9454 7.47383 15.5145 7.70975 15.1611 8.03999L15.1406 8.06056L8.436 14.7651L8.42743 14.7737C8.09385 15.117 7.85184 15.5386 7.72363 15.9998C7.59542 16.4609 7.5851 16.9469 7.69363 17.4131C7.80217 17.8794 8.02606 18.3108 8.34478 18.668C8.66349 19.0251 9.06681 19.2965 9.51771 19.4571L20.2011 23.4394L20.2131 23.4446C20.7093 23.6204 21.2449 23.6532 21.7589 23.5395C22.2728 23.4257 22.7445 23.1698 23.1201 22.801C23.4957 22.4322 23.7601 21.9653 23.8833 21.4535C24.0064 20.9417 23.9833 20.4056 23.8166 19.9063L19.8514 9.23142C19.6994 8.77563 19.4358 8.36511 19.0846 8.03724C18.7334 7.70938 18.3057 7.4746 17.8406 7.35427M5.62114 13.56C5.08096 13.4355 4.51376 13.5168 4.03028 13.788C3.73248 13.9542 3.38087 13.9952 3.05279 13.9022C2.7247 13.8091 2.44703 13.5895 2.28086 13.2917C2.11468 12.9939 2.07361 12.6423 2.16668 12.3142C2.25975 11.9861 2.47934 11.7085 2.77714 11.5423C3.81486 10.9617 5.03112 10.787 6.19028 11.052C6.52287 11.1275 6.81184 11.332 6.99365 11.6205C7.17545 11.909 7.23519 12.258 7.15971 12.5906C7.08424 12.9231 6.87974 13.2121 6.5912 13.3939C6.30266 13.5757 5.95372 13.6355 5.62114 13.56ZM1.82571 5.99999C1.37106 5.99999 0.935021 6.1806 0.61353 6.50209C0.292039 6.82358 0.111427 7.25962 0.111427 7.71427C0.111427 8.16893 0.292039 8.60497 0.61353 8.92646C0.935021 9.24795 1.37106 9.42856 1.82571 9.42856C2.28037 9.42856 2.71641 9.24795 3.0379 8.92646C3.35939 8.60497 3.54 8.16893 3.54 7.71427C3.54 7.25962 3.35939 6.82358 3.0379 6.50209C2.71641 6.1806 2.28037 5.99999 1.82571 5.99999Z" fill="#7681FC"/>
</g>
<defs>
<clipPath id="clip0_256_9936">
<rect width="24" height="24" fill="white"/>
</clipPath>
</defs>
</svg>
