<svg width="24" height="24" viewBox="0 0 24 24" fill="none" xmlns="http://www.w3.org/2000/svg">
<path fill-rule="evenodd" clip-rule="evenodd" d="M12.007 4.61883C10.6759 4.57724 9.35714 4.88551 8.18237 5.51286C7.00761 6.14022 6.01794 7.06473 5.31214 8.1941C4.60634 9.32348 4.2091 10.6182 4.16007 11.9491C4.11104 13.28 4.41193 14.6004 5.03272 15.7787C5.49454 15.2156 6.07967 14.7662 6.74289 14.4653C7.4061 14.1644 8.12962 14.0201 8.85752 14.0435L14.5655 14.2208C15.2934 14.2426 16.0066 14.4316 16.6499 14.7731C17.2931 15.1145 17.8492 15.5994 18.2752 16.1901C18.9679 15.0526 19.3502 13.7534 19.3839 12.422C19.4175 11.0907 19.1014 9.77375 18.4671 8.60275C17.8328 7.43174 16.9024 6.44759 15.7688 5.74853C14.6353 5.04947 13.3382 4.65994 12.007 4.61883ZM19.1475 18.2445C19.2715 18.0928 19.3906 17.9372 19.5048 17.7776C20.6081 16.2432 21.2277 14.414 21.2839 12.525C21.4471 7.2708 17.3203 2.87939 12.0661 2.71618C6.81194 2.55296 2.42053 6.67976 2.25731 11.934C2.1894 14.0237 2.81426 16.0773 4.03464 17.775L4.02935 17.792L4.35487 18.1954C5.2147 19.2662 6.29652 20.1379 7.52575 20.7503C8.75497 21.3628 10.1024 21.7013 11.4751 21.7428C11.6806 21.7492 11.885 21.7492 12.0883 21.7428C13.8083 21.6879 15.4807 21.1653 16.926 20.2314C17.6172 19.7856 18.2477 19.2521 18.8018 18.6442L19.1517 18.2618L19.1475 18.2445ZM11.9479 6.52149C11.191 6.49798 10.4557 6.77612 9.90388 7.29472C9.35203 7.81332 9.02879 8.5299 9.00528 9.28683C8.98177 10.0438 9.2599 10.779 9.7785 11.3309C10.2971 11.8827 11.0137 12.206 11.7706 12.2295C12.5275 12.253 13.2628 11.9748 13.8147 11.4562C14.3665 10.9376 14.6897 10.2211 14.7133 9.46414C14.7368 8.70721 14.4586 7.97195 13.94 7.4201C13.4214 6.86824 12.7048 6.54501 11.9479 6.52149Z" fill="#252525" stroke="#EDEEF2" stroke-width="0.5"/>
<ellipse cx="4.13138" cy="4.0733" rx="4.13138" ry="4.0733" transform="matrix(0.999546 0.030153 -0.0319716 0.999489 15.2605 1.00366)" fill="#7681FC"/>
<path d="M20.7666 3.56144L20.6536 7.09479L20.0191 7.07564L18.5389 4.78386L18.5096 4.78298L18.4378 7.02793L17.7057 7.00584L17.8187 3.47249L18.463 3.49193L19.9334 5.78341L19.9676 5.78444L20.0394 3.53949L20.7666 3.56144Z" fill="#F2F3FA"/>
</svg>
