<svg width="24" height="24" viewBox="0 0 24 24" fill="none" xmlns="http://www.w3.org/2000/svg">
<path fill-rule="evenodd" clip-rule="evenodd" d="M12 4.0008C7.5816 4.0008 4 7.58235 4 12.0007C3.99932 13.1794 4.25912 14.3437 4.7608 15.4103L4.0168 19.0398C3.99031 19.1694 3.99637 19.3035 4.03443 19.4302C4.0725 19.5569 4.14138 19.6722 4.23491 19.7657C4.32844 19.8592 4.44371 19.9281 4.57039 19.9662C4.69707 20.0042 4.83121 20.0103 4.9608 19.9838L8.5904 19.2398C9.6256 19.7278 10.7824 19.9998 12 19.9998C16.4184 19.9998 20 16.419 20 11.9999C20 7.58235 16.4184 4 12 4" fill="#8D8D8D"/>
</svg>
