<svg width="24" height="24" viewBox="0 0 24 24" fill="none" xmlns="http://www.w3.org/2000/svg">
<path d="M15.475 11.925C15.4917 12.4083 15.4127 12.8707 15.238 13.312C15.0633 13.7533 14.809 14.141 14.475 14.475C14.141 14.809 13.766 15.0633 13.35 15.238C12.934 15.4127 12.4923 15.5 12.025 15.5C11.8583 15.5 11.696 15.4917 11.538 15.475C11.38 15.4583 11.2257 15.425 11.075 15.375C10.875 15.3083 10.675 15.3123 10.475 15.387C10.275 15.4617 10.1333 15.591 10.05 15.775C9.96667 15.975 9.96667 16.1707 10.05 16.362C10.1333 16.5533 10.275 16.6827 10.475 16.75C10.725 16.8333 10.975 16.8957 11.225 16.937C11.475 16.9783 11.7333 16.9993 12 17C12.6667 17 13.3043 16.8707 13.913 16.612C14.5217 16.3533 15.059 15.991 15.525 15.525C15.9917 15.075 16.35 14.5457 16.6 13.937C16.85 13.3283 16.9833 12.6993 17 12.05L17.425 12.475C17.575 12.625 17.75 12.7 17.95 12.7C18.15 12.7 18.325 12.625 18.475 12.475C18.625 12.325 18.7 12.15 18.7 11.95C18.7 11.75 18.625 11.575 18.475 11.425L16.875 9.825C16.675 9.625 16.4417 9.525 16.175 9.525C15.9083 9.525 15.675 9.625 15.475 9.825L13.875 11.425C13.725 11.575 13.65 11.75 13.65 11.95C13.65 12.15 13.725 12.325 13.875 12.475C14.025 12.625 14.2 12.7 14.4 12.7C14.6 12.7 14.775 12.625 14.925 12.475L15.475 11.925ZM8.5 12.1C8.5 11.6167 8.58767 11.15 8.763 10.7C8.93833 10.25 9.19233 9.85833 9.525 9.525C9.85767 9.19167 10.2327 8.93733 10.65 8.762C11.0673 8.58667 11.509 8.49933 11.975 8.5C12.1417 8.5 12.304 8.50833 12.462 8.525C12.62 8.54167 12.7743 8.575 12.925 8.625C13.125 8.69167 13.329 8.68733 13.537 8.612C13.745 8.53667 13.891 8.40767 13.975 8.225C14.0583 8.025 14.0583 7.829 13.975 7.637C13.8917 7.445 13.75 7.316 13.55 7.25C13.3 7.16667 13.0457 7.104 12.787 7.062C12.5283 7.02 12.266 6.99933 12 7C11.3333 7 10.696 7.121 10.088 7.363C9.48 7.605 8.934 7.96733 8.45 8.45C7.98333 8.91667 7.62933 9.454 7.388 10.062C7.14667 10.67 7.02567 11.2993 7.025 11.95L6.575 11.5C6.425 11.3667 6.25 11.3 6.05 11.3C5.85 11.3 5.675 11.375 5.525 11.525C5.375 11.675 5.3 11.85 5.3 12.05C5.3 12.25 5.375 12.425 5.525 12.575L7.125 14.175C7.325 14.375 7.55833 14.475 7.825 14.475C8.09167 14.475 8.325 14.375 8.525 14.175L10.125 12.575C10.275 12.425 10.35 12.25 10.35 12.05C10.35 11.85 10.275 11.675 10.125 11.525C9.975 11.375 9.8 11.3 9.6 11.3C9.4 11.3 9.225 11.375 9.075 11.525L8.5 12.1ZM22 12C22 13.3833 21.7373 14.6833 21.212 15.9C20.6867 17.1167 19.9743 18.175 19.075 19.075C18.1757 19.975 17.1173 20.6873 15.9 21.212C14.6827 21.7367 13.3827 21.9993 12 22C10.6173 22.0007 9.31734 21.738 8.1 21.212C6.88267 20.686 5.82433 19.9737 4.925 19.075C4.02567 18.1763 3.31333 17.118 2.788 15.9C2.26267 14.682 2 13.382 2 12C2 10.618 2.26267 9.318 2.788 8.1C3.31333 6.882 4.02567 5.82367 4.925 4.925C5.82433 4.02633 6.88267 3.31367 8.1 2.787C9.31733 2.26033 10.6173 1.998 12 2C13.3827 2.002 14.6827 2.26467 15.9 2.788C17.1173 3.31133 18.1757 4.02367 19.075 4.925C19.9743 5.82633 20.687 6.88467 21.213 8.1C21.739 9.31533 22.0013 10.6153 22 12Z" fill="#7681FC"/>
</svg>
