<svg width="24" height="24" viewBox="0 0 24 24" fill="none" xmlns="http://www.w3.org/2000/svg">
<path d="M17.1363 16.3834L14.7529 14C14.8761 13.8029 14.9716 13.572 15.0393 13.3072C15.107 13.0423 15.1409 12.7744 15.1409 12.5035C15.1409 11.6289 14.8361 10.8868 14.2264 10.2771C13.6167 9.66744 12.8746 9.36259 12 9.36259C11.7291 9.36259 11.4642 9.39338 11.2056 9.45497C10.9469 9.51655 10.7129 9.61509 10.5035 9.75058L8.47118 7.69977C8.90228 7.50269 9.45347 7.33025 10.1248 7.18245C10.796 7.03464 11.4519 6.96074 12.0924 6.96074C13.7552 6.96074 15.2887 7.41647 16.6929 8.32794C18.097 9.23941 19.1686 10.465 19.9077 12.0046C19.9446 12.0662 19.9693 12.1401 19.9816 12.2263C19.9939 12.3125 20 12.4049 20 12.5035C20 12.602 19.9939 12.6975 19.9816 12.7898C19.9693 12.8822 19.9446 12.9592 19.9077 13.0208C19.5874 13.6982 19.1933 14.3202 18.7252 14.8868C18.2572 15.4534 17.7275 15.9523 17.1363 16.3834ZM17.8014 20.1524L15.104 17.5104C14.6729 17.6828 14.1863 17.8152 13.6444 17.9076C13.1024 18 12.5543 18.0462 12 18.0462C10.3003 18.0462 8.74215 17.5905 7.32568 16.679C5.90921 15.7675 4.83145 14.542 4.09242 13.0023C4.05547 12.9284 4.03084 12.8514 4.01852 12.7714C4.0062 12.6913 4.00005 12.602 4.00005 12.5035C4.00005 12.4049 4.00928 12.3095 4.02776 12.2171C4.04624 12.1247 4.06779 12.0477 4.09242 11.9861C4.35108 11.4319 4.68057 10.893 5.08088 10.3695C5.48118 9.84604 5.95232 9.35027 6.49427 8.88222L4.55432 6.94226C4.44346 6.83141 4.38804 6.70208 4.38804 6.55427C4.38804 6.40647 4.44346 6.27714 4.55432 6.16628C4.66517 6.05543 4.79758 6 4.95155 6C5.10551 6 5.23792 6.05543 5.34878 6.16628L18.5774 19.3949C18.6759 19.4935 18.7252 19.6135 18.7252 19.7552C18.7252 19.8968 18.6759 20.0231 18.5774 20.1339C18.4789 20.2571 18.3526 20.3187 18.1987 20.3187C18.0447 20.3187 17.9123 20.2633 17.8014 20.1524ZM12 15.6443C12.1725 15.6443 12.3572 15.6289 12.5543 15.5982C12.7514 15.5674 12.9177 15.5212 13.0532 15.4596L9.04393 11.4503C8.98234 11.5982 8.93615 11.7644 8.90536 11.9492C8.87456 12.1339 8.85917 12.3187 8.85917 12.5035C8.85917 13.3903 9.1671 14.1355 9.78296 14.739C10.3988 15.3426 11.1378 15.6443 12 15.6443ZM13.94 13.1871L11.3164 10.5635C12.0801 10.2802 12.7883 10.428 13.4412 11.0069C14.094 11.5858 14.2602 12.3125 13.94 13.1871Z" fill="#8D8D8D"/>
</svg>
