<svg width="24" height="24" viewBox="0 0 24 24" fill="none" xmlns="http://www.w3.org/2000/svg">
<path d="M5.76712 18.9918C5.27766 18.9918 4.86073 18.8196 4.51636 18.4752C4.17198 18.1308 3.99979 17.7139 3.99979 17.2244V7.78613C3.99979 7.29149 4.17198 6.87015 4.51636 6.5221C4.86073 6.17403 5.27766 6 5.76712 6H18.2137C18.7083 6 19.1296 6.17403 19.4777 6.5221C19.8258 6.87015 19.9998 7.29149 19.9998 7.78613V17.2244C19.9998 17.7139 19.8258 18.1308 19.4777 18.4752C19.1296 18.8196 18.7083 18.9918 18.2137 18.9918H5.76712ZM11.9904 13.2573C12.0781 13.2573 12.1596 13.2448 12.2348 13.2197C12.31 13.1947 12.3924 13.1568 12.4818 13.106L17.9504 9.44066C18.0131 9.40932 18.0726 9.34822 18.129 9.25734C18.1855 9.16647 18.2137 9.06297 18.2137 8.94684C18.2137 8.72914 18.1102 8.55021 17.9034 8.41004C17.6966 8.26986 17.4867 8.27497 17.2736 8.42538L11.9904 11.8848L6.72599 8.42538C6.51291 8.2875 6.29983 8.27497 6.08674 8.38778C5.87366 8.50059 5.76712 8.68134 5.76712 8.93003C5.76712 9.04113 5.79845 9.14148 5.86113 9.23106C5.9238 9.32065 5.98765 9.39093 6.05269 9.44188L11.4993 13.106C11.5885 13.1568 11.6708 13.1947 11.746 13.2197C11.8212 13.2448 11.9026 13.2573 11.9904 13.2573Z" fill="#8D8D8D"/>
</svg>
