<svg width="24" height="24" viewBox="0 0 24 24" fill="none" xmlns="http://www.w3.org/2000/svg">
<path d="M10.2 10L7.675 3.675C7.50833 3.275 7.54567 2.896 7.787 2.538C8.02833 2.18 8.366 2.00067 8.8 2L9.35 2C9.55 2 9.74167 2.046 9.925 2.138C10.1083 2.23 10.2583 2.359 10.375 2.525L15.6 10L20 10C20.55 10 21.0207 10.196 21.412 10.588C21.8033 10.98 21.9993 11.4507 22 12C22.0007 12.5493 21.8047 13.0203 21.412 13.413C21.0193 13.8057 20.5487 14.0013 20 14L15.6 14L10.375 21.475C10.2583 21.6417 10.1083 21.771 9.925 21.863C9.74167 21.955 9.55 22.0007 9.35 22L8.8 22C8.36667 22 8.029 21.821 7.787 21.463C7.545 21.105 7.50766 20.7257 7.675 20.325L10.2 14L6.6 14L4.8 16.575C4.7 16.7083 4.579 16.8127 4.437 16.888C4.295 16.9633 4.141 17.0007 3.975 17L3.375 17C3.04167 17 2.77067 16.8623 2.562 16.587C2.35333 16.3117 2.29933 16.0077 2.4 15.675L3.5 12L2.4 8.325C2.3 7.99167 2.354 7.68733 2.562 7.412C2.77 7.13667 3.041 6.99933 3.375 7L3.975 7C4.14167 7 4.29567 7.03767 4.437 7.113C4.57833 7.18833 4.69933 7.29233 4.8 7.425L6.6 10L10.2 10Z" fill="#252525"/>
</svg>
