<svg width="24" height="24" viewBox="0 0 24 24" fill="none" xmlns="http://www.w3.org/2000/svg">
<path fill-rule="evenodd" clip-rule="evenodd" d="M12.707 2.29303C12.5195 2.10556 12.2652 2.00024 12 2.00024C11.7348 2.00024 11.4805 2.10556 11.293 2.29303L4.293 9.29303L2.293 11.293C2.19749 11.3853 2.12131 11.4956 2.0689 11.6176C2.01649 11.7396 1.98891 11.8709 1.98775 12.0036C1.9866 12.1364 2.0119 12.2681 2.06218 12.391C2.11246 12.5139 2.18672 12.6255 2.28061 12.7194C2.3745 12.8133 2.48615 12.8876 2.60905 12.9379C2.73195 12.9881 2.86363 13.0134 2.99641 13.0123C3.12919 13.0111 3.26041 12.9835 3.38241 12.9311C3.50441 12.8787 3.61476 12.8025 3.707 12.707L4 12.414V19C4 19.7957 4.31608 20.5587 4.87868 21.1214C5.44129 21.684 6.20436 22 7 22H17C17.7957 22 18.5587 21.684 19.1213 21.1214C19.6839 20.5587 20 19.7957 20 19V12.414L20.293 12.707C20.4816 12.8892 20.7342 12.99 20.9964 12.9877C21.2586 12.9854 21.5094 12.8803 21.6948 12.6948C21.8802 12.5094 21.9854 12.2586 21.9877 11.9964C21.99 11.7342 21.8892 11.4816 21.707 11.293L12.707 2.29303Z" fill="#7681FC"/>
</svg>
