<svg width="24" height="24" viewBox="0 0 24 24" fill="none" xmlns="http://www.w3.org/2000/svg">
<path fill-rule="evenodd" clip-rule="evenodd" d="M4.222 5.36399C5.23338 4.35238 6.57291 3.73539 7.99906 3.62428C9.42522 3.51316 10.8441 3.91523 12 4.75799C13.2212 3.87441 14.7302 3.48271 16.227 3.66072C17.7239 3.83874 19.0989 4.57344 20.0788 5.7188C21.0588 6.86416 21.5719 8.33631 21.5161 9.84264C21.4604 11.349 20.8399 12.7792 19.778 13.849L14.121 19.506C13.5584 20.0684 12.7955 20.3843 12 20.3843C11.2045 20.3843 10.4416 20.0684 9.879 19.506L4.222 13.85C3.09687 12.7248 2.46478 11.1987 2.46478 9.60749C2.46478 8.01626 3.09687 6.4892 4.222 5.36399Z" fill="#6B6B6B"/>
</svg>
