<svg width="24" height="24" viewBox="0 0 24 24" fill="none" xmlns="http://www.w3.org/2000/svg">
<path d="M17.1998 9.33333H16.3998V7.80952C16.3998 5.70667 14.6078 4 12.3998 4C10.1918 4 8.39979 5.70667 8.39979 7.80952V9.33333H7.59979C6.71979 9.33333 5.99979 10.019 5.99979 10.8571V18.4762C5.99979 19.3143 6.71979 20 7.59979 20H17.1998C18.0798 20 18.7998 19.3143 18.7998 18.4762V10.8571C18.7998 10.019 18.0798 9.33333 17.1998 9.33333ZM12.3998 16.1905C11.5198 16.1905 10.7998 15.5048 10.7998 14.6667C10.7998 13.8286 11.5198 13.1429 12.3998 13.1429C13.2798 13.1429 13.9998 13.8286 13.9998 14.6667C13.9998 15.5048 13.2798 16.1905 12.3998 16.1905ZM9.99979 9.33333V7.80952C9.99979 6.54476 11.0718 5.52381 12.3998 5.52381C13.7278 5.52381 14.7998 6.54476 14.7998 7.80952V9.33333H9.99979Z" fill="#8D8D8D"/>
</svg>
